<svg width="79" height="87" viewBox="0 0 79 87" fill="none" xmlns="http://www.w3.org/2000/svg">
<path fill-rule="evenodd" clip-rule="evenodd" d="M67.15 7.9H71.1C75.445 7.9 79 11.455 79 15.8V79C79 83.345 75.445 86.9 71.1 86.9H7.9C3.555 86.9 0 83.345 0 79V15.8C0 11.455 3.555 7.9 7.9 7.9H11.85V0H19.75V7.9H59.25V0H67.15V7.9ZM7.9 79H71.1V35.55H7.9V79ZM7.9 27.65H71.1V15.8H7.9V27.65ZM40.115 44.4317C39.7641 43.3516 38.2359 43.3516 37.885 44.4317L35.4465 51.9366C35.2895 52.4197 34.8394 52.7467 34.3315 52.7467H26.4404C25.3046 52.7467 24.8324 54.2001 25.7512 54.8676L32.1353 59.5059C32.5462 59.8044 32.7181 60.3336 32.5612 60.8167L30.1227 68.3216C29.7717 69.4017 31.008 70.2999 31.9268 69.6324L38.3109 64.9941C38.7218 64.6956 39.2782 64.6956 39.6891 64.9941L46.0732 69.6324C46.992 70.2999 48.2283 69.4017 47.8773 68.3216L45.4388 60.8167C45.2819 60.3336 45.4538 59.8044 45.8647 59.5059L52.2488 54.8676C53.1676 54.2001 52.6954 52.7467 51.5596 52.7467H43.6685C43.1606 52.7467 42.7105 52.4197 42.5535 51.9366L40.115 44.4317Z" fill="#07382E"/>
</svg>
