<svg width="79" height="87" viewBox="0 0 79 87" fill="none" xmlns="http://www.w3.org/2000/svg">
<path fill-rule="evenodd" clip-rule="evenodd" d="M67.15 7.9H71.1C75.445 7.9 79 11.455 79 15.8V79C79 83.345 75.445 86.9 71.1 86.9H7.9C3.555 86.9 0 83.345 0 79V15.8C0 11.455 3.555 7.9 7.9 7.9H11.85V0H19.75V7.9H59.25V0H67.15V7.9ZM7.9 35.55V79H71.1V35.55H7.9ZM7.9 27.65H71.1V15.8H7.9V27.65ZM37.6875 65.2997L39.5 67L41.3125 65.2997C43.4167 63.3161 45.1562 61.6049 46.5312 60.1662C47.9062 58.7275 49 57.436 49.8125 56.2916C50.625 55.1471 51.1927 54.0954 51.5156 53.1362C51.8385 52.1771 52 51.1962 52 50.1935C52 48.1444 51.3438 46.4332 50.0312 45.0599C48.7188 43.6866 47.0833 43 45.125 43C44.0417 43 43.0104 43.2398 42.0312 43.7193C41.0521 44.1989 40.2083 44.8747 39.5 45.7466C38.7917 44.8747 37.9479 44.1989 36.9688 43.7193C35.9896 43.2398 34.9583 43 33.875 43C31.9167 43 30.2812 43.6866 28.9688 45.0599C27.6562 46.4332 27 48.1444 27 50.1935C27 51.1962 27.1615 52.1771 27.4844 53.1362C27.8073 54.0954 28.375 55.1471 29.1875 56.2916C30 57.436 31.0938 58.7275 32.4688 60.1662C33.8438 61.6049 35.5833 63.3161 37.6875 65.2997Z" fill="#07382E"/>
</svg>
