<svg width="142" height="116" viewBox="0 0 142 116" fill="none" xmlns="http://www.w3.org/2000/svg">
<path d="M4.03956 116C1.80857 116 0 114.191 0 111.96V107.151C0 104.92 1.80858 103.111 4.03957 103.111H137.738C139.969 103.111 141.778 104.92 141.778 107.151V111.96C141.778 114.191 139.969 116 137.738 116H4.03956ZM19.3333 96.6667C15.7889 96.6667 12.7546 95.4046 10.2306 92.8806C7.70648 90.3565 6.44444 87.3222 6.44444 83.7778V12.8889C6.44444 9.34444 7.70648 6.31019 10.2306 3.78611C12.7546 1.26204 15.7889 0 19.3333 0H122.444C125.989 0 129.023 1.26204 131.547 3.78611C134.071 6.31019 135.333 9.34444 135.333 12.8889V83.7778C135.333 87.3222 134.071 90.3565 131.547 92.8806C129.023 95.4046 125.989 96.6667 122.444 96.6667H19.3333ZM19.3333 79.7382C19.3333 81.9692 21.1419 83.7778 23.3729 83.7778H118.405C120.636 83.7778 122.444 81.9692 122.444 79.7382V16.9285C122.444 14.6975 120.636 12.8889 118.405 12.8889H23.3729C21.1419 12.8889 19.3333 14.6975 19.3333 16.9285V79.7382Z" fill="#07382E"/>
<path d="M69.1751 63.6246V59.6437C67.5395 59.2734 66.1277 58.5636 64.9396 57.5144C63.7515 56.4651 62.8797 54.9838 62.3242 53.0705L65.7497 51.6818C66.2126 53.1631 66.8992 54.2895 67.8096 55.061C68.7199 55.8325 69.9158 56.2182 71.397 56.2182C72.6623 56.2182 73.7347 55.9328 74.6142 55.3619C75.4937 54.791 75.9334 53.9038 75.9334 52.7002C75.9334 51.6201 75.594 50.7638 74.9151 50.1311C74.2362 49.4985 72.6623 48.781 70.1935 47.9786C67.5395 47.1454 65.7188 46.1502 64.7313 44.9929C63.7438 43.8357 63.25 42.4239 63.25 40.7574C63.25 38.7515 63.8981 37.1931 65.1942 36.0821C66.4903 34.9712 67.8173 34.3386 69.1751 34.1843V30.2959H72.8783V34.1843C74.4213 34.4311 75.6943 34.9943 76.6972 35.8738C77.7002 36.7533 78.4331 37.8257 78.896 39.091L75.4706 40.5723C75.1002 39.5847 74.5756 38.8441 73.8967 38.3503C73.2178 37.8566 72.292 37.6097 71.1193 37.6097C69.7615 37.6097 68.7277 37.9106 68.0179 38.5124C67.3081 39.1141 66.9532 39.8625 66.9532 40.7574C66.9532 41.7758 67.4161 42.5782 68.3419 43.1645C69.2677 43.7508 70.8724 44.368 73.1561 45.0161C75.2854 45.6333 76.8978 46.6131 77.9934 47.9555C79.0889 49.2979 79.6366 50.8486 79.6366 52.6076C79.6366 54.7987 78.9886 56.4651 77.6925 57.6069C76.3963 58.7488 74.7916 59.4585 72.8783 59.7363V63.6246H69.1751Z" fill="#07382E"/>
</svg>
